<svg width="18" height="10" viewBox="0 0 18 10" fill="none" xmlns="http://www.w3.org/2000/svg">
<path d="M1.69048 0.276644C1.29098 -0.104695 0.657984 -0.0899739 0.276644 0.309524C-0.104695 0.709023 -0.0899739 1.34202 0.309524 1.72336L1.69048 0.276644ZM9.38095 9L8.69048 9.72336C8.88246 9.90662 9.13943 10.006 9.40477 9.99972C9.67011 9.99339 9.92205 9.88185 10.1051 9.68966L9.38095 9ZM17.7241 1.68966C18.105 1.28972 18.0896 0.656748 17.6897 0.275862C17.2897 -0.105024 16.6567 -0.0895855 16.2759 0.310345L17.7241 1.68966ZM0.309524 1.72336L8.69048 9.72336L10.0714 8.27664L1.69048 0.276644L0.309524 1.72336ZM10.1051 9.68966L17.7241 1.68966L16.2759 0.310345L8.65682 8.31034L10.1051 9.68966Z" fill="#313A4E"/>
</svg>
